<svg width="180" height="180" viewBox="0 0 180 180" fill="none" xmlns="http://www.w3.org/2000/svg">
<rect width="180" height="180" rx="90" fill="#FCFCFC"/>
<path d="M88.2727 126H65.6705V56.1818H88.9886C95.8295 56.1818 101.705 57.5795 106.614 60.375C111.523 63.1477 115.284 67.1364 117.898 72.3409C120.534 77.5227 121.852 83.7386 121.852 90.9886C121.852 98.2614 120.523 104.511 117.864 109.739C115.227 114.966 111.409 118.989 106.409 121.807C101.409 124.602 95.3636 126 88.2727 126ZM76.2045 116.795H87.6932C93.0114 116.795 97.4318 115.795 100.955 113.795C104.477 111.773 107.114 108.852 108.864 105.034C110.614 101.193 111.489 96.5114 111.489 90.9886C111.489 85.5114 110.614 80.8636 108.864 77.0455C107.136 73.2273 104.557 70.3295 101.125 68.3523C97.6932 66.375 93.4318 65.3864 88.3409 65.3864H76.2045V116.795Z" fill="#1F3BB3"/>
</svg>
