<svg width="468" height="73" viewBox="0 0 468 73" fill="none" xmlns="http://www.w3.org/2000/svg">
<path d="M23.2727 71H0.670455V1.18182H23.9886C30.8295 1.18182 36.7045 2.57954 41.6136 5.375C46.5227 8.14772 50.2841 12.1364 52.8977 17.3409C55.5341 22.5227 56.8523 28.7386 56.8523 35.9886C56.8523 43.2614 55.5227 49.5114 52.8636 54.7386C50.2273 59.9659 46.4091 63.9886 41.4091 66.8068C36.4091 69.6023 30.3636 71 23.2727 71ZM11.2045 61.7955H22.6932C28.0114 61.7955 32.4318 60.7955 35.9545 58.7955C39.4773 56.7727 42.1136 53.8523 43.8636 50.0341C45.6136 46.1932 46.4886 41.5114 46.4886 35.9886C46.4886 30.5114 45.6136 25.8636 43.8636 22.0455C42.1364 18.2273 39.5568 15.3295 36.125 13.3523C32.6932 11.375 28.4318 10.3864 23.3409 10.3864H11.2045V61.7955ZM91.7017 72.0568C86.5426 72.0568 82.0994 70.9545 78.3722 68.75C74.6676 66.5227 71.804 63.3977 69.7812 59.375C67.7812 55.3295 66.7812 50.5909 66.7812 45.1591C66.7812 39.7955 67.7812 35.0682 69.7812 30.9773C71.804 26.8864 74.6222 23.6932 78.2358 21.3977C81.8722 19.1023 86.1222 17.9545 90.9858 17.9545C93.9403 17.9545 96.804 18.4432 99.5767 19.4205C102.349 20.3977 104.838 21.9318 107.043 24.0227C109.247 26.1136 110.986 28.8295 112.259 32.1705C113.531 35.4886 114.168 39.5227 114.168 44.2727V47.8864H72.5426V40.25H104.179C104.179 37.5682 103.634 35.1932 102.543 33.125C101.452 31.0341 99.9176 29.3864 97.9403 28.1818C95.9858 26.9773 93.6903 26.375 91.054 26.375C88.1903 26.375 85.6903 27.0795 83.554 28.4886C81.4403 29.875 79.804 31.6932 78.6449 33.9432C77.5085 36.1705 76.9403 38.5909 76.9403 41.2045V47.1705C76.9403 50.6705 77.554 53.6477 78.7812 56.1023C80.0312 58.5568 81.7699 60.4318 83.9972 61.7273C86.2244 63 88.8267 63.6364 91.804 63.6364C93.7358 63.6364 95.4972 63.3636 97.0881 62.8182C98.679 62.25 100.054 61.4091 101.213 60.2955C102.372 59.1818 103.259 57.8068 103.872 56.1705L113.52 57.9091C112.747 60.75 111.361 63.2386 109.361 65.375C107.384 67.4886 104.895 69.1364 101.895 70.3182C98.9176 71.4773 95.5199 72.0568 91.7017 72.0568ZM164.716 31.4205L155.477 33.0568C155.091 31.875 154.477 30.75 153.636 29.6818C152.818 28.6136 151.705 27.7386 150.295 27.0568C148.886 26.375 147.125 26.0341 145.011 26.0341C142.125 26.0341 139.716 26.6818 137.784 27.9773C135.852 29.25 134.886 30.8977 134.886 32.9205C134.886 34.6705 135.534 36.0795 136.83 37.1477C138.125 38.2159 140.216 39.0909 143.102 39.7727L151.42 41.6818C156.239 42.7955 159.83 44.5114 162.193 46.8295C164.557 49.1477 165.739 52.1591 165.739 55.8636C165.739 59 164.83 61.7955 163.011 64.25C161.216 66.6818 158.705 68.5909 155.477 69.9773C152.273 71.3636 148.557 72.0568 144.33 72.0568C138.466 72.0568 133.682 70.8068 129.977 68.3068C126.273 65.7841 124 62.2045 123.159 57.5682L133.011 56.0682C133.625 58.6364 134.886 60.5795 136.795 61.8977C138.705 63.1932 141.193 63.8409 144.261 63.8409C147.602 63.8409 150.273 63.1477 152.273 61.7614C154.273 60.3523 155.273 58.6364 155.273 56.6136C155.273 54.9773 154.659 53.6023 153.432 52.4886C152.227 51.375 150.375 50.5341 147.875 49.9659L139.011 48.0227C134.125 46.9091 130.511 45.1364 128.17 42.7045C125.852 40.2727 124.693 37.1932 124.693 33.4659C124.693 30.375 125.557 27.6705 127.284 25.3523C129.011 23.0341 131.398 21.2273 134.443 19.9318C137.489 18.6136 140.977 17.9545 144.909 17.9545C150.568 17.9545 155.023 19.1818 158.273 21.6364C161.523 24.0682 163.67 27.3295 164.716 31.4205ZM201.389 18.6364V26.8182H172.787V18.6364H201.389ZM180.457 6.09091H190.651V55.625C190.651 57.6023 190.946 59.0909 191.537 60.0909C192.128 61.0682 192.889 61.7386 193.821 62.1023C194.776 62.4432 195.81 62.6136 196.923 62.6136C197.741 62.6136 198.457 62.5568 199.071 62.4432C199.685 62.3295 200.162 62.2386 200.503 62.1705L202.344 70.5909C201.753 70.8182 200.912 71.0455 199.821 71.2727C198.73 71.5227 197.366 71.6591 195.73 71.6818C193.048 71.7273 190.548 71.25 188.23 70.25C185.912 69.25 184.037 67.7045 182.605 65.6136C181.173 63.5227 180.457 60.8977 180.457 57.7386V6.09091ZM212.665 71V18.6364H222.517V26.9545H223.062C224.017 24.1364 225.699 21.9205 228.108 20.3068C230.54 18.6705 233.29 17.8523 236.358 17.8523C236.994 17.8523 237.744 17.875 238.608 17.9205C239.494 17.9659 240.188 18.0227 240.688 18.0909V27.8409C240.278 27.7273 239.551 27.6023 238.506 27.4659C237.46 27.3068 236.415 27.2273 235.369 27.2273C232.96 27.2273 230.813 27.7386 228.926 28.7614C227.063 29.7614 225.585 31.1591 224.494 32.9545C223.403 34.7273 222.858 36.75 222.858 39.0227V71H212.665ZM269.69 72.0568C264.781 72.0568 260.497 70.9318 256.838 68.6818C253.179 66.4318 250.338 63.2841 248.315 59.2386C246.293 55.1932 245.281 50.4659 245.281 45.0568C245.281 39.625 246.293 34.875 248.315 30.8068C250.338 26.7386 253.179 23.5795 256.838 21.3295C260.497 19.0795 264.781 17.9545 269.69 17.9545C274.599 17.9545 278.884 19.0795 282.543 21.3295C286.202 23.5795 289.043 26.7386 291.065 30.8068C293.088 34.875 294.099 39.625 294.099 45.0568C294.099 50.4659 293.088 55.1932 291.065 59.2386C289.043 63.2841 286.202 66.4318 282.543 68.6818C278.884 70.9318 274.599 72.0568 269.69 72.0568ZM269.724 63.5C272.906 63.5 275.543 62.6591 277.634 60.9773C279.724 59.2955 281.27 57.0568 282.27 54.2614C283.293 51.4659 283.804 48.3864 283.804 45.0227C283.804 41.6818 283.293 38.6136 282.27 35.8182C281.27 33 279.724 30.7386 277.634 29.0341C275.543 27.3295 272.906 26.4773 269.724 26.4773C266.52 26.4773 263.861 27.3295 261.747 29.0341C259.656 30.7386 258.099 33 257.077 35.8182C256.077 38.6136 255.577 41.6818 255.577 45.0227C255.577 48.3864 256.077 51.4659 257.077 54.2614C258.099 57.0568 259.656 59.2955 261.747 60.9773C263.861 62.6591 266.52 63.5 269.724 63.5Z" fill="black"/>
<path d="M344.375 19.5227C344.011 16.2955 342.511 13.7955 339.875 12.0227C337.239 10.2273 333.92 9.32955 329.92 9.32955C327.057 9.32955 324.58 9.78409 322.489 10.6932C320.398 11.5795 318.773 12.8068 317.614 14.375C316.477 15.9205 315.909 17.6818 315.909 19.6591C315.909 21.3182 316.295 22.75 317.068 23.9545C317.864 25.1591 318.898 26.1705 320.17 26.9886C321.466 27.7841 322.852 28.4545 324.33 29C325.807 29.5227 327.227 29.9545 328.591 30.2955L335.409 32.0682C337.636 32.6136 339.92 33.3523 342.261 34.2841C344.602 35.2159 346.773 36.4432 348.773 37.9659C350.773 39.4886 352.386 41.375 353.614 43.625C354.864 45.875 355.489 48.5682 355.489 51.7045C355.489 55.6591 354.466 59.1705 352.42 62.2386C350.398 65.3068 347.455 67.7273 343.591 69.5C339.75 71.2727 335.102 72.1591 329.648 72.1591C324.42 72.1591 319.898 71.3295 316.08 69.6705C312.261 68.0114 309.273 65.6591 307.114 62.6136C304.955 59.5455 303.761 55.9091 303.534 51.7045H314.102C314.307 54.2273 315.125 56.3295 316.557 58.0114C318.011 59.6705 319.864 60.9091 322.114 61.7273C324.386 62.5227 326.875 62.9205 329.58 62.9205C332.557 62.9205 335.205 62.4545 337.523 61.5227C339.864 60.5682 341.705 59.25 343.045 57.5682C344.386 55.8636 345.057 53.875 345.057 51.6023C345.057 49.5341 344.466 47.8409 343.284 46.5227C342.125 45.2045 340.545 44.1136 338.545 43.25C336.568 42.3864 334.33 41.625 331.83 40.9659L323.58 38.7159C317.989 37.1932 313.557 34.9545 310.284 32C307.034 29.0455 305.409 25.1364 305.409 20.2727C305.409 16.25 306.5 12.7386 308.682 9.73863C310.864 6.73863 313.818 4.40909 317.545 2.75C321.273 1.06818 325.477 0.22727 330.159 0.22727C334.886 0.22727 339.057 1.05682 342.67 2.71591C346.307 4.375 349.17 6.65909 351.261 9.56818C353.352 12.4545 354.443 15.7727 354.534 19.5227H344.375ZM389.827 72.0568C384.668 72.0568 380.224 70.9545 376.497 68.75C372.793 66.5227 369.929 63.3977 367.906 59.375C365.906 55.3295 364.906 50.5909 364.906 45.1591C364.906 39.7955 365.906 35.0682 367.906 30.9773C369.929 26.8864 372.747 23.6932 376.361 21.3977C379.997 19.1023 384.247 17.9545 389.111 17.9545C392.065 17.9545 394.929 18.4432 397.702 19.4205C400.474 20.3977 402.963 21.9318 405.168 24.0227C407.372 26.1136 409.111 28.8295 410.384 32.1705C411.656 35.4886 412.293 39.5227 412.293 44.2727V47.8864H370.668V40.25H402.304C402.304 37.5682 401.759 35.1932 400.668 33.125C399.577 31.0341 398.043 29.3864 396.065 28.1818C394.111 26.9773 391.815 26.375 389.179 26.375C386.315 26.375 383.815 27.0795 381.679 28.4886C379.565 29.875 377.929 31.6932 376.77 33.9432C375.634 36.1705 375.065 38.5909 375.065 41.2045V47.1705C375.065 50.6705 375.679 53.6477 376.906 56.1023C378.156 58.5568 379.895 60.4318 382.122 61.7273C384.349 63 386.952 63.6364 389.929 63.6364C391.861 63.6364 393.622 63.3636 395.213 62.8182C396.804 62.25 398.179 61.4091 399.338 60.2955C400.497 59.1818 401.384 57.8068 401.997 56.1705L411.645 57.9091C410.872 60.75 409.486 63.2386 407.486 65.375C405.509 67.4886 403.02 69.1364 400.02 70.3182C397.043 71.4773 393.645 72.0568 389.827 72.0568ZM445.659 72.0568C440.591 72.0568 436.227 70.9091 432.568 68.6136C428.932 66.2955 426.136 63.1023 424.182 59.0341C422.227 54.9659 421.25 50.3068 421.25 45.0568C421.25 39.7386 422.25 35.0455 424.25 30.9773C426.25 26.8864 429.068 23.6932 432.705 21.3977C436.341 19.1023 440.625 17.9545 445.557 17.9545C449.534 17.9545 453.08 18.6932 456.193 20.1705C459.307 21.625 461.818 23.6705 463.727 26.3068C465.659 28.9432 466.807 32.0227 467.17 35.5455H457.25C456.705 33.0909 455.455 30.9773 453.5 29.2045C451.568 27.4318 448.977 26.5455 445.727 26.5455C442.886 26.5455 440.398 27.2955 438.261 28.7955C436.148 30.2727 434.5 32.3864 433.318 35.1364C432.136 37.8636 431.545 41.0909 431.545 44.8182C431.545 48.6364 432.125 51.9318 433.284 54.7045C434.443 57.4773 436.08 59.625 438.193 61.1477C440.33 62.6705 442.841 63.4318 445.727 63.4318C447.659 63.4318 449.409 63.0795 450.977 62.375C452.568 61.6477 453.898 60.6136 454.966 59.2727C456.057 57.9318 456.818 56.3182 457.25 54.4318H467.17C466.807 57.8182 465.705 60.8409 463.864 63.5C462.023 66.1591 459.557 68.25 456.466 69.7727C453.398 71.2955 449.795 72.0568 445.659 72.0568Z" fill="#002CCA"/>
</svg>
